<svg width="297" height="297" viewBox="0 0 297 297" fill="none" xmlns="http://www.w3.org/2000/svg">
<g clip-path="url(#clip0_2102_1804)">
<path d="M54.3125 49.2127C39.7467 57.6403 37.3548 106.82 37.9796 130.357L30.2147 146.87L25.9307 187.3L35.0342 222.035L58.0609 242.819L101.704 257.909L181.495 251.645L250.039 209.223L264.498 179.612L267.175 146.87L256.465 122.1L235.313 87.0799L197.292 64.5874V50.0669L180.959 32.6992L167.839 40.6713L153.916 64.5874L118.305 72.5594C97.9559 42.6642 72.5196 38.6782 54.3125 49.2127Z" fill="white"/>
<path d="M248.432 102.451C245.219 98.4669 233.95 100.947 234.988 118.883C235.532 128.279 241.873 135.855 243.479 137.563" stroke="black" stroke-width="13" stroke-linecap="round" stroke-linejoin="round"/>
<path d="M7 185.545L77.3294 185.545" stroke="black" stroke-width="13" stroke-linecap="round" stroke-linejoin="round"/>
<path d="M11.6699 239.034L85.5924 205.782M267.174 142.882L285.936 134.738" stroke="black" stroke-width="13" stroke-linecap="round" stroke-linejoin="round"/>
<path d="M51.2507 273L98.8649 224.69" stroke="black" stroke-width="13" stroke-linecap="round" stroke-linejoin="round"/>
<path d="M271.925 163.463H290.935" stroke="black" stroke-width="13" stroke-linecap="round" stroke-linejoin="round"/>
<path d="M213.177 115.42C206.215 106.595 182.064 101.469 171.14 127.663C160.216 153.856 175.959 177.204 189.615 181.474" stroke="black" stroke-width="13" stroke-linecap="round" stroke-linejoin="round"/>
<ellipse cx="204.204" cy="147.075" rx="11.1095" ry="17.9023" transform="rotate(-9.82814 204.204 147.075)" fill="black"/>
<ellipse cx="4.67908" cy="9.4073" rx="4.67908" ry="9.4073" transform="matrix(0.990146 -0.140036 0.124112 0.992268 245.603 113.826)" fill="black"/>
<ellipse cx="252.181" cy="151.991" rx="6.42605" ry="6.83317" fill="black"/>
<ellipse cx="283.812" cy="243.962" rx="13.5859" ry="13.1726" fill="black"/>
<path d="M220.553 253.042C186.004 263.981 158.567 276.594 72.3818 253.042C96.6584 258.138 169.242 261.789 201.023 245.458C234.493 228.26 250.597 212.093 256.041 203.918C269.697 223.983 262.16 239.87 220.553 253.042Z" fill="black"/>
<path d="M257.066 237.335C252.886 238.293 240.018 245.663 232.442 248.651C243.089 240.313 256.416 203.94 258.764 208.576C263.01 216.959 264.633 221.065 267.256 223.745C274.048 230.688 266.83 235.097 257.066 237.335Z" fill="black"/>
<path d="M146.68 64.0247C149.227 48.8315 171.83 31 183.192 31C194.554 31 208.241 46.7088 208.241 69.2104" stroke="black" stroke-width="13" stroke-linecap="round" stroke-linejoin="round"/>
<path d="M84.5273 91.8504C91.333 87.3451 102.104 81.3945 115.051 76.0654C136.74 67.1375 164.536 59.9541 190.022 64.233C240.894 72.7745 256.424 114.912 256.424 124.308C256.424 133.704 261.351 131.721 266.372 147.442C274.472 172.803 270.698 221.117 190.022 248.25C116.163 273.09 40.3875 249.441 27.8032 204.74C18.6419 172.199 27.7721 141.394 34.7358 127.816C35.9178 125.512 36.4003 122.908 36.0263 120.345C31.9307 92.2753 40.6735 44.1571 57.5222 35.6696C81.3522 23.6653 107.863 53.768 121.786 73.4291" stroke="black" stroke-width="13" stroke-linecap="round" stroke-linejoin="round"/>
</g>
<defs>
<clipPath id="clip0_2102_1804">
<rect width="297" height="297" fill="white"/>
</clipPath>
</defs>
</svg>
